<svg width="53" height="19" viewBox="0 0 53 19" fill="none" xmlns="http://www.w3.org/2000/svg">
<g clip-path="url(#clip0_7699_11971)">
<path d="M29.685 3.69994C29.7167 3.67206 29.6939 3.61886 29.6508 3.62266C26.7362 3.83674 25.1757 4.1306 23.3555 4.7386C21.5074 5.3808 20.0077 6.3726 20.0077 6.9616C20.0077 7.23014 20.3028 7.4708 20.8652 7.65826C21.4542 7.84574 21.9634 7.98 22.3649 8.0598L25.1769 8.70326C26.8641 9.0782 28.6058 9.72163 29.6229 10.3638C30.4539 10.873 30.882 11.623 30.882 12.5336C30.882 16.2564 25.7659 18.587 17.5161 18.587C14.8371 18.587 13.4983 18.1044 13.4983 17.114C13.4983 16.7656 13.7655 16.2298 14.3292 15.4002C14.7573 14.8112 14.9993 14.597 15.4274 14.4628C17.1931 13.9004 16.9816 13.9536 17.1678 13.9536C17.2717 13.9536 17.3565 14.0384 17.3553 14.1424C17.3553 14.302 17.3008 14.3564 17.0601 14.5438L16.5471 14.9238C16.5129 14.9492 16.5307 15.0024 16.5725 15.0036C17.3325 15.029 18.0633 15.053 18.266 15.053C21.7747 15.053 24.5601 14.5438 26.9173 13.4722C27.9623 13.0162 28.3905 12.6692 28.3905 12.3208C28.3905 11.9726 28.0155 11.6774 27.0516 11.3024C26.1675 10.9542 25.0427 10.6324 24.346 10.4994L19.9266 9.69637C17.9443 9.348 17.1944 8.7058 17.1944 7.31246C17.1944 6.91094 17.3021 6.26746 17.5161 5.4644C17.9709 3.8038 18.3471 3.3212 19.7125 2.54474C22.579 0.910734 26.1675 0 29.5697 0C30.6413 0 31.7927 0.134266 32.8643 0.374934C33.4533 0.4826 33.561 0.6422 33.561 1.31226C33.561 2.08874 33.3203 2.99946 32.972 3.401C32.6769 3.80254 32.5439 3.8836 31.3114 4.31174C30.5349 4.579 30.2132 4.76646 28.9275 5.624C28.6324 5.81146 28.4728 5.89254 28.2853 5.89254C28.0713 5.89254 27.8572 5.70506 27.8572 5.5176C27.8572 5.35674 27.9104 5.24906 28.1789 5.035L29.685 3.69994Z" fill="#EB1C2D"/>
<path d="M18.8199 10.1763C18.8219 10.1704 18.8226 10.1641 18.822 10.158C18.8215 10.1518 18.8197 10.1458 18.8167 10.1403C18.8138 10.1349 18.8097 10.1301 18.8048 10.1262C18.7999 10.1224 18.7943 10.1196 18.7883 10.1181C17.5279 9.7431 16.4691 9.0059 16.4691 7.2503C16.4691 6.63976 16.6577 5.8063 16.8161 5.2097C17.0973 4.18496 17.3785 3.52882 17.8421 2.9943C17.8501 2.98526 17.8543 2.97351 17.8538 2.96148C17.8533 2.94946 17.8482 2.93807 17.8395 2.9297C17.0061 2.13042 15.6875 1.65796 13.6545 1.65796H1.1601C1.12483 1.65796 1.091 1.67197 1.06605 1.69692C1.04111 1.72186 1.0271 1.75569 1.0271 1.79096V16.6363C1.0271 16.7097 1.08663 16.7693 1.1601 16.7693H5.52757C5.56284 16.7693 5.59667 16.7552 5.62161 16.7303C5.64655 16.7054 5.66057 16.6715 5.66057 16.6363V13.1035C5.66057 13.0861 5.66401 13.0688 5.67069 13.0527C5.67737 13.0366 5.68717 13.0218 5.69952 13.0095C5.71187 12.9971 5.72653 12.9873 5.74267 12.9807C5.75881 12.974 5.7761 12.9705 5.79357 12.9705H14.8655C17.1555 12.9719 18.3235 11.7077 18.8199 10.1763ZM14.3651 7.6075C14.3651 8.50556 13.9471 9.2149 12.8629 9.2149H5.79483C5.75956 9.2149 5.72573 9.20088 5.70079 9.17594C5.67584 9.151 5.66183 9.11717 5.66183 9.0819V5.54916C5.66183 5.5317 5.66527 5.5144 5.67196 5.49827C5.67865 5.48213 5.68844 5.46747 5.70079 5.45512C5.71314 5.44277 5.7278 5.43296 5.74394 5.42629C5.76007 5.4196 5.77737 5.41616 5.79483 5.41616H12.4663C13.8647 5.41616 14.3663 6.0001 14.3663 7.02356L14.3651 7.6075ZM41.0271 1.72762C41.0158 1.70657 40.999 1.68898 40.9785 1.67671C40.958 1.66445 40.9345 1.65797 40.9107 1.65796H35.0371C35.013 1.65794 34.9894 1.6644 34.9686 1.67666C34.9479 1.68891 34.9309 1.70652 34.9193 1.72762L30.5113 9.86973C30.4919 9.90602 30.4854 9.94782 30.4928 9.98829C30.5001 10.0288 30.5209 10.0655 30.5519 10.0927C30.8886 10.39 31.1573 10.7564 31.3398 11.1669C31.5223 11.5774 31.6144 12.0223 31.6095 12.4715C31.6095 13.6773 31.1509 15.2785 29.2129 16.6427C29.2006 16.6508 29.1913 16.6628 29.1863 16.6768C29.1813 16.6907 29.181 16.7059 29.1855 16.7201C29.1899 16.7342 29.1988 16.7466 29.2109 16.7552C29.2229 16.7639 29.2375 16.7683 29.2523 16.7681H31.8705C31.9211 16.7681 31.9667 16.7401 31.9895 16.6945L33.2955 14.1233C33.2996 14.1153 33.3057 14.1086 33.3133 14.104C33.3208 14.0993 33.3296 14.0968 33.3385 14.0967H42.6713C42.6801 14.0968 42.6886 14.0991 42.6962 14.1036C42.7037 14.1081 42.71 14.1143 42.7143 14.1219L44.1027 16.6983C44.1141 16.7195 44.1312 16.7373 44.1519 16.7495C44.1726 16.7618 44.1963 16.7682 44.2205 16.7681H49.2137C49.2221 16.7681 49.2305 16.7659 49.2379 16.7617C49.2453 16.7576 49.2515 16.7515 49.2559 16.7442C49.2601 16.737 49.2625 16.7286 49.2627 16.7202C49.2629 16.7116 49.2608 16.7033 49.2567 16.6959L41.0271 1.72762ZM40.9107 10.8425H35.0979C35.0919 10.8426 35.086 10.8411 35.0808 10.8383C35.0756 10.8353 35.0712 10.8311 35.0682 10.826C35.065 10.8209 35.0634 10.815 35.0632 10.809C35.0631 10.803 35.0647 10.7971 35.0675 10.7919L37.9327 5.2249C37.9453 5.19956 37.9809 5.19956 37.9947 5.2249L40.9423 10.7919C40.9449 10.7973 40.946 10.8032 40.9456 10.8092C40.9454 10.8151 40.9435 10.8209 40.9403 10.8259C40.9372 10.8309 40.9328 10.8351 40.9276 10.8381C40.9225 10.8409 40.9166 10.8425 40.9107 10.8425ZM51.6937 16.2233C51.6945 16.3298 51.6738 16.4355 51.633 16.5339C51.5923 16.6323 51.5323 16.7215 51.4565 16.7964C51.3807 16.8712 51.2908 16.9301 51.1918 16.9696C51.0929 17.0092 50.987 17.0285 50.8805 17.0265C50.774 17.0281 50.6681 17.0086 50.5691 16.969C50.4702 16.9294 50.3801 16.8706 50.3041 16.7958C50.2281 16.7211 50.1677 16.632 50.1263 16.5337C50.085 16.4355 50.0637 16.3299 50.0635 16.2233C50.0635 15.7825 50.4259 15.4305 50.8805 15.4305C51.3403 15.4305 51.6937 15.7825 51.6937 16.2233ZM50.2663 16.2233C50.2663 16.5767 50.5271 16.8567 50.8857 16.8567C51.2339 16.8567 51.4911 16.5755 51.4911 16.2285C51.4911 15.8751 51.2339 15.5901 50.8819 15.5901C50.5285 15.5901 50.2663 15.8751 50.2663 16.2233ZM50.7551 16.6389H50.5715V15.8459C50.6437 15.8319 50.7463 15.8219 50.8767 15.8219C51.0263 15.8219 51.0947 15.8459 51.1529 15.8801C51.178 15.9017 51.1979 15.9284 51.2113 15.9588C51.2247 15.989 51.2311 16.0218 51.2301 16.0549C51.2301 16.1423 51.1631 16.2095 51.0655 16.2385V16.2487C51.1427 16.2779 51.1859 16.3361 51.2111 16.4425C51.2353 16.5629 51.2505 16.6123 51.2695 16.6413H51.0705C51.0465 16.6123 51.0313 16.5401 51.0073 16.4475C50.9933 16.3601 50.9439 16.3221 50.8425 16.3221H50.7551V16.6389ZM50.7603 16.1891H50.8477C50.9489 16.1891 51.0313 16.1549 51.0313 16.0727C51.0313 16.0005 50.9781 15.9511 50.8615 15.9511C50.8275 15.9503 50.7934 15.9536 50.7603 15.9611V16.1891Z" fill="#0050A2"/>
</g>
<defs>
<clipPath id="clip0_7699_11971">
<rect width="53" height="19" fill="white"/>
</clipPath>
</defs>
</svg>
