<svg data-v-7198e29c="" fill="none" height="16px" viewBox="0 0 44 17" width="41px" xmlns="http://www.w3.org/2000/svg" class="" id="svg-clipper-mnri39mb-22" xmlns:xlink="http://www.w3.org/1999/xlink"><g><path d="M43.0662 1.8803H42.9967L42.8753 1.61132C42.936 1.58529 42.9794 1.5419 42.9967 1.48984C43.0141 1.43778 43.0315 1.3944 43.0315 1.35101C43.0315 1.3163 43.0228 1.27292 43.0141 1.24689C42.9967 1.21218 42.9794 1.18615 42.9534 1.16012C42.9273 1.13409 42.8926 1.11674 42.8579 1.09938C42.8232 1.08203 42.7798 1.08203 42.7364 1.08203H42.32C42.3113 1.09938 42.3113 1.11674 42.3113 1.12542C42.3113 1.13409 42.3113 1.14277 42.3113 1.15145C42.3113 1.16012 42.3113 1.1688 42.3113 1.17748C42.3113 1.18615 42.32 1.20351 42.32 1.22086H42.3894V1.8803H42.32C42.3113 1.89765 42.3113 1.915 42.3113 1.92368C42.3113 1.93236 42.3113 1.94103 42.3113 1.94971C42.3113 1.95839 42.3113 1.96706 42.3113 1.97574C42.3113 1.98442 42.32 2.00177 42.32 2.01912H42.6323C42.641 2.00177 42.641 1.98442 42.641 1.97574C42.641 1.96706 42.641 1.95839 42.641 1.94971C42.641 1.94103 42.641 1.93236 42.641 1.92368C42.641 1.915 42.6323 1.89765 42.6323 1.8803H42.5542V1.63735H42.6931L42.8579 2.01912H43.0575C43.0662 2.00177 43.0662 1.98442 43.0662 1.97574C43.0662 1.96706 43.0662 1.95839 43.0662 1.94971C43.0662 1.94103 43.0662 1.93236 43.0662 1.92368C43.0835 1.915 43.0748 1.89765 43.0662 1.8803ZM42.8059 1.44646C42.7798 1.47249 42.7451 1.48116 42.7017 1.48116H42.5542V1.22086H42.7017C42.7451 1.22086 42.7798 1.22954 42.7972 1.25557C42.8232 1.2816 42.8319 1.30763 42.8319 1.34233C42.8406 1.3944 42.8319 1.4291 42.8059 1.44646Z" fill="#000"></path> <path d="M43.4305 1.22028C43.3871 1.12483 43.3264 1.03806 43.2569 0.959972C43.1788 0.890557 43.0921 0.82982 42.9966 0.795113C42.9012 0.751729 42.7971 0.734375 42.6843 0.734375C42.5715 0.734375 42.4674 0.751729 42.3719 0.795113C42.2765 0.838497 42.181 0.890557 42.1116 0.959972C42.0335 1.02939 41.9814 1.11615 41.9381 1.22028C41.8947 1.31572 41.8687 1.42852 41.8687 1.54132C41.8687 1.66279 41.8947 1.76691 41.9381 1.86236C41.9814 1.9578 42.0422 2.04457 42.1116 2.12266C42.1897 2.19208 42.2765 2.25281 42.3719 2.2962C42.4674 2.33958 42.5801 2.35693 42.6843 2.35693C42.7971 2.35693 42.9012 2.33958 42.9966 2.2962C43.0921 2.25281 43.1788 2.20075 43.2569 2.12266C43.335 2.05325 43.3871 1.96648 43.4305 1.86236C43.4739 1.76691 43.4999 1.65411 43.4999 1.54132C43.4999 1.42852 43.4739 1.3244 43.4305 1.22028ZM43.2396 1.80162C43.2049 1.87971 43.1615 1.94913 43.1094 2.00119C43.0574 2.05325 42.988 2.09663 42.9185 2.13134C42.8405 2.16605 42.7624 2.17472 42.6843 2.17472C42.5975 2.17472 42.5194 2.15737 42.4413 2.13134C42.3632 2.09663 42.3025 2.05325 42.2504 2.00119C42.1984 1.94913 42.155 1.87971 42.1203 1.80162C42.0856 1.72353 42.0769 1.63676 42.0769 1.54999C42.0769 1.46323 42.0942 1.37646 42.1203 1.29837C42.155 1.22028 42.1984 1.15954 42.2504 1.0988C42.3025 1.04674 42.3719 1.00336 42.4413 0.968648C42.5194 0.933941 42.5975 0.925264 42.6843 0.925264C42.771 0.925264 42.8491 0.942618 42.9185 0.968648C42.9966 1.00336 43.0574 1.04674 43.1094 1.0988C43.1615 1.15086 43.2049 1.22028 43.2396 1.29837C43.2743 1.37646 43.283 1.45455 43.283 1.54999C43.2916 1.63676 43.2743 1.72353 43.2396 1.80162Z" fill="#000"></path> <path d="M39.8643 11.346C39.4739 11.5195 39.0313 11.667 38.5281 11.7885C38.0248 11.91 37.4782 11.962 36.8795 11.962C35.7342 11.962 34.8578 11.6844 34.2504 11.1291C33.6344 10.5738 33.3307 9.60195 33.3307 8.22234C33.3307 5.76681 34.0682 4.54338 35.5433 4.54338C36.0465 4.54338 36.4196 4.69957 36.6713 5.01193C36.9229 5.32429 37.0444 5.77549 37.0444 6.35683C37.0444 6.53037 37.2005 6.68655 37.3741 6.68655H41.4955V1.10738C41.4955 0.899132 41.322 0.725597 41.1138 0.725597H37.7906V1.31562C37.5216 1.15076 37.1658 0.968547 36.706 0.786334C36.2461 0.595445 35.5953 0.5 34.7624 0.5C33.7559 0.5 32.8448 0.690889 32.0118 1.06399C31.1788 1.43709 30.476 1.98373 29.8773 2.68655C29.2873 3.38937 28.8274 4.2397 28.4977 5.22885C28.2634 5.93167 28.0465 6.69523 27.9771 7.50217H20.3936V9.35032C20.3936 10.3482 21.2005 11.1551 22.1984 11.1551H22.45V11.6497V12.3698C22.424 12.3872 22.2938 12.4046 22.0595 12.4306C21.8339 12.4566 21.5823 12.474 21.322 12.474C20.9576 12.474 20.6105 12.4046 20.2634 12.2744C19.925 12.1443 19.6127 11.9187 19.3437 11.6063C19.0747 11.2939 18.8578 10.8861 18.6929 10.3742C18.5368 9.86226 18.45 9.23753 18.45 8.48265C18.45 7.9013 18.5021 7.36334 18.6149 6.87744C18.7277 6.39154 18.8925 5.96638 19.1094 5.61063C19.3263 5.25488 19.5953 4.97722 19.9164 4.77766C20.2374 4.57809 20.6018 4.47397 21.001 4.47397C21.5303 4.47397 21.9381 4.6128 22.2331 4.89046C22.5281 5.16811 22.6756 5.50651 22.6756 5.91432V6.30477C22.6756 6.51301 22.8491 6.68655 23.0574 6.68655H27.2743V1.10738C27.2743 0.899132 27.1008 0.725597 26.8925 0.725597H23.5693V1.34165C23.1788 1.09002 22.6756 0.890455 22.0682 0.734273C21.4522 0.578091 20.8535 0.508677 20.2721 0.508677C19.1875 0.508677 18.207 0.708243 17.3394 1.09002C16.4717 1.48048 15.7255 2.02711 15.1008 2.72126C14.4847 3.4154 14.0075 4.25705 13.6691 5.2462C13.3307 6.23536 13.1658 7.31996 13.1658 8.50868C13.1658 8.63883 13.1658 8.7603 13.1745 8.88178C13.1572 8.85575 13.1485 8.82972 13.1311 8.81236C12.8448 8.36117 12.437 7.94469 11.9077 7.58026C11.3784 7.20716 10.6756 6.92082 9.79923 6.71258L5.91203 5.77549C5.6604 5.70607 5.49555 5.61931 5.41746 5.51518C5.33936 5.41106 5.30466 5.30694 5.30466 5.19414C5.30466 5.00325 5.4001 4.81236 5.59967 4.63015C5.79056 4.44794 6.18101 4.36117 6.77103 4.36117C7.39576 4.36117 7.89034 4.49132 8.25477 4.75163C8.51507 4.93384 8.67993 5.14208 8.75802 5.359C8.8014 5.48915 8.92288 5.57592 9.06171 5.57592H13.0877V1.12473C13.0877 0.916486 12.9142 0.74295 12.706 0.74295H9.39143V1.359C9.04435 1.13341 8.58448 0.951193 8.02049 0.795011C7.4565 0.638829 6.77971 0.569414 5.98145 0.569414C5.31333 0.569414 4.64522 0.664859 3.97711 0.864425C3.309 1.05531 2.7103 1.359 2.18101 1.74946C1.65173 2.14859 1.22657 2.65184 0.896848 3.27657C0.56713 3.89262 0.402271 4.62147 0.402271 5.46312C0.402271 7.74512 1.57364 9.18547 3.91637 9.78416L7.89034 10.808C8.50639 10.9729 8.81008 11.2852 8.81008 11.7278C8.81008 11.962 8.70596 12.1529 8.49772 12.2918C8.28947 12.4306 7.95108 12.5 7.49121 12.5C6.61485 12.5 5.93806 12.3612 5.47819 12.0748C5.00965 11.7885 4.77537 11.4414 4.77537 11.0423C4.77537 10.8688 4.62787 10.7299 4.44565 10.7299H0.358887V15.8492C0.358887 16.0575 0.532423 16.231 0.740666 16.231H4.30683V15.667C4.74067 15.8926 5.24392 16.0748 5.82526 16.2223C6.40661 16.3698 7.13546 16.4393 8.02917 16.4393C8.60184 16.4393 9.22657 16.3785 9.90336 16.2484C10.5801 16.1269 11.2136 15.8839 11.7949 15.5369C12.3762 15.1898 12.8708 14.7039 13.2613 14.0879C13.5736 13.5846 13.7645 12.9599 13.8253 12.205C14.129 12.9685 14.5454 13.6367 15.0747 14.218C15.7255 14.9295 16.5411 15.4848 17.5389 15.8926C18.5368 16.3004 19.7255 16.5 21.1224 16.5C21.9988 16.5 22.8057 16.4393 23.5433 16.3091C24.2808 16.1876 24.9316 16.0401 25.4869 15.8839C26.0422 15.7278 26.5021 15.5629 26.8578 15.4154C27.2136 15.2592 27.4478 15.1551 27.5606 15.103V11.1725H30.0075L28.4717 11.667C28.5411 11.9013 28.5845 12.0228 28.5845 12.0228C28.9229 12.9425 29.4088 13.7408 30.0595 14.4089C31.4131 15.8059 33.3914 16.5 36.0118 16.5C36.8448 16.5 37.5823 16.4479 38.207 16.3525C38.8318 16.257 39.3697 16.1443 39.8122 16.0141C40.2548 15.8926 40.6192 15.7625 40.8968 15.6236C41.1745 15.4935 41.3827 15.3894 41.5216 15.32V10.3221C41.3654 10.4436 41.1485 10.6085 40.8708 10.7907C40.5845 10.9902 40.2548 11.1725 39.8643 11.346Z" fill="#000"></path></g></svg>